<svg width="33" height="33" viewBox="0 0 33 33" fill="none" xmlns="http://www.w3.org/2000/svg">
    <path d="M20.625 16.5a4.125 4.125 0 1 1-8.25 0 4.125 4.125 0 0 1 8.25 0z" stroke="#575353" stroke-width="1.5" stroke-linecap="round" stroke-linejoin="round"/>
    <path d="M2.75 17.71v-2.42a2.62 2.62 0 0 1 2.612-2.612c2.49 0 3.507-1.76 2.255-3.92a2.612 2.612 0 0 1 .963-3.56l2.379-1.362a2.295 2.295 0 0 1 3.135.825l.151.261c1.238 2.16 3.272 2.16 4.524 0l.151-.26a2.295 2.295 0 0 1 3.135-.826l2.379 1.361a2.613 2.613 0 0 1 .962 3.562c-1.251 2.158-.233 3.918 2.255 3.918a2.62 2.62 0 0 1 2.613 2.613v2.42a2.621 2.621 0 0 1-2.613 2.612c-2.488 0-3.506 1.76-2.255 3.92a2.612 2.612 0 0 1-.962 3.56l-2.379 1.362a2.295 2.295 0 0 1-3.135-.825l-.151-.262c-1.238-2.158-3.273-2.158-4.524 0l-.151.262a2.295 2.295 0 0 1-3.135.825L8.58 27.802a2.613 2.613 0 0 1-.963-3.56c1.252-2.16.234-3.92-2.255-3.92A2.62 2.62 0 0 1 2.75 17.71v0z" stroke="#575353" stroke-width="1.5" stroke-linecap="round" stroke-linejoin="round"/>
</svg>
